<?xml version="1.0" encoding="UTF-8"?>
<svg id="Layer_1" data-name="Layer 1" xmlns="http://www.w3.org/2000/svg" viewBox="0 0 273.67 273.35">
  <defs>
    <style>
      .cls-1 {
        fill: #578c64;
      }

      .cls-2 {
        fill: #8cbbd9;
      }
    </style>
  </defs>
  <rect class="cls-2" width="273.67" height="273.35" rx="24.45" ry="24.45"/>
  <g>
    <path class="cls-1" d="M44.68,245.91c-4.38,0-8.76-1.67-12.1-4.99-6.66-6.67-6.66-17.52,0-24.19l27.71-27.71c1.52-1.52,3.99-1.52,5.52,0l18.67,18.67c1.52,1.52,1.52,3.99,0,5.52l-27.71,27.71c-3.34,3.34-7.72,4.99-12.1,4.99h0ZM63.06,197.29l-24.95,24.95c-3.63,3.63-3.63,9.52,0,13.15,3.63,3.63,9.52,3.62,13.15,0l24.95-24.95-13.15-13.15Z"/>
    <path class="cls-1" d="M66.46,199.08c-.99,0-1.99-.38-2.75-1.13-1.53-1.52-1.54-3.99-.02-5.52l6.3-6.34c1.52-1.52,3.99-1.53,5.52-.02,1.53,1.52,1.54,3.99.02,5.52l-6.3,6.34c-.76.76-1.77,1.15-2.77,1.15h0Z"/>
    <path class="cls-1" d="M78.32,210.94c-1,0-2.01-.39-2.77-1.15-1.52-1.53-1.51-4,.02-5.52l6.34-6.3c1.52-1.52,4-1.51,5.52.02,1.52,1.53,1.51,4-.02,5.52l-6.34,6.3c-.76.76-1.76,1.13-2.75,1.13h0Z"/>
    <path class="cls-1" d="M202.14,245.92h-92.63c-8.6,0-15.61-7-15.61-15.61v-22.08c0-2.16,1.75-3.9,3.9-3.9s3.9,1.75,3.9,3.9v22.08c0,4.3,3.5,7.8,7.8,7.8h91.01l37.75-37.75V56.69c0-2.16,1.75-3.9,3.9-3.9s3.9,1.75,3.9,3.9v145.3c0,1.03-.41,2.03-1.14,2.76l-40.03,40.03c-.73.73-1.72,1.14-2.76,1.14h0Z"/>
    <path class="cls-1" d="M97.81,79.28c-2.16,0-3.9-1.75-3.9-3.9v-18.69c0-2.16,1.75-3.9,3.9-3.9s3.9,1.75,3.9,3.9v18.69c0,2.16-1.75,3.9-3.9,3.9Z"/>
    <path class="cls-1" d="M242.17,60.59H97.81c-2.16,0-3.9-1.75-3.9-3.9v-13.66c0-8.6,7-15.61,15.61-15.61h120.95c8.6,0,15.61,7,15.61,15.61v13.66c0,2.16-1.75,3.9-3.9,3.9h0ZM101.71,52.79h136.56v-9.75c0-4.3-3.5-7.8-7.8-7.8h-120.95c-4.3,0-7.8,3.5-7.8,7.8v9.75Z"/>
    <path class="cls-1" d="M202.14,245.92c-2.16,0-3.9-1.75-3.9-3.9v-28.33c0-8.6,7-15.61,15.61-15.61h28.33c2.16,0,3.9,1.75,3.9,3.9s-1.75,3.9-3.9,3.9h-28.33c-4.3,0-7.8,3.5-7.8,7.8v28.33c0,2.16-1.75,3.9-3.9,3.9Z"/>
    <path class="cls-1" d="M130.35,203.55c-33.3,0-60.39-27.09-60.39-60.39s27.09-60.4,60.39-60.4,60.4,27.1,60.4,60.4-27.09,60.39-60.4,60.39ZM130.35,90.57c-29,0-52.59,23.59-52.59,52.59s23.59,52.59,52.59,52.59,52.59-23.59,52.59-52.59-23.6-52.59-52.59-52.59Z"/>
    <path class="cls-1" d="M130.35,186.44c-23.87,0-43.29-19.42-43.29-43.29s19.42-43.29,43.29-43.29,43.29,19.42,43.29,43.29-19.42,43.29-43.29,43.29ZM130.35,107.67c-19.57,0-35.49,15.92-35.49,35.49s15.92,35.49,35.49,35.49,35.49-15.92,35.49-35.49-15.92-35.49-35.49-35.49Z"/>
    <path class="cls-1" d="M124.44,158.38c-.99,0-2-.38-2.76-1.14l-10.81-10.81c-1.52-1.52-1.52-3.99,0-5.52,1.52-1.52,3.99-1.52,5.52,0l8.06,8.06,19.89-19.89c1.52-1.52,3.99-1.52,5.52,0,1.52,1.52,1.52,3.99,0,5.52l-22.65,22.65c-.76.76-1.76,1.14-2.76,1.14h0Z"/>
    <path class="cls-1" d="M223.22,82.27h-54.5c-2.16,0-3.9-1.75-3.9-3.9s1.75-3.9,3.9-3.9h54.5c2.16,0,3.9,1.75,3.9,3.9s-1.75,3.9-3.9,3.9Z"/>
    <path class="cls-1" d="M223.22,106.87h-27.4c-2.16,0-3.9-1.75-3.9-3.9s1.75-3.9,3.9-3.9h27.4c2.16,0,3.9,1.75,3.9,3.9s-1.75,3.9-3.9,3.9Z"/>
    <path class="cls-1" d="M223.22,131.46h-19c-2.16,0-3.9-1.75-3.9-3.9s1.75-3.9,3.9-3.9h19c2.16,0,3.9,1.75,3.9,3.9s-1.75,3.9-3.9,3.9Z"/>
    <path class="cls-1" d="M223.22,156.06h-19c-2.16,0-3.9-1.75-3.9-3.9s1.75-3.9,3.9-3.9h19c2.16,0,3.9,1.75,3.9,3.9s-1.75,3.9-3.9,3.9Z"/>
  </g>
</svg>