<?xml version="1.0" encoding="UTF-8"?>
<svg id="Layer_1" data-name="Layer 1" xmlns="http://www.w3.org/2000/svg" viewBox="0 0 273.67 273.35">
  <defs>
    <style>
      .cls-1 {
        fill: #9fa7bf;
      }

      .cls-2 {
        fill: #274b59;
        font-family: Roboto-Bold, Roboto;
        font-size: 24px;
        font-weight: 700;
      }

      .cls-3 {
        fill: none;
        stroke: #274b59;
        stroke-linecap: round;
        stroke-linejoin: round;
        stroke-width: 5px;
      }

      .cls-4 {
        letter-spacing: 0em;
      }
    </style>
  </defs>
  <rect class="cls-1" width="273.67" height="273.35" rx="24.45" ry="24.45"/>
  <g>
    <path class="cls-3" d="M142.04,100.51c-.36-1.65-.22-3.3.35-4.84.77-2.09.91-4.38,2.08-6.31,1.33-2.19,1.98-4.67,3.04-6.97.23-.5.48-.66.98-.83,1.46-.5,2.66-1.41,3.75-2.54,2.43-2.53,4.92-5.01,7.44-7.45,1.14-1.1,1.53-2.63,2.37-3.81.78-1.09,2.66-1.19,3.79-2.33,4.92-5.01,9.9-9.95,14.88-14.9.59-.58,1.11-1.21,1.44-1.95.49-1.11.99-2.18.05-3.42-.55-.72-.54-1.76-.54-2.72.02-6.36.02-12.73,0-19.09,0-2.81-.43-3.23-3.23-3.23-43.05,0-86.1,0-129.14,0-2.81,0-3.23.43-3.23,3.23,0,56.95,0,113.91,0,170.86,0,2.81.43,3.23,3.23,3.23,34.96,0,69.91,0,104.87.02,1.22,0,2.33-.71,3.4-.71,1.07,0,2.18.71,3.4.71,20.55-.02,41.11-.05,61.66.03,2.96.01,4.74-2.16,4.74-4.74-.07-27.07-.07-54.15,0-81.22,0-2.58-1.77-4.76-4.74-4.74-12.35.11-24.71.18-37.06-.06-2.87-.06-5.72.11-8.58.1-5.12,0-10.25,0-15.37,0-2.87,0-4.53,1.66-4.53,4.53,0,27.07,0,54.15-.01,81.22,0,1.32.47,2.57.49,3.88"/>
    <path class="cls-3" d="M139.94,179.87v-58.98c0-3.08-.64-3.72-3.72-3.72-3.61,0-7.23,0-10.84,0-2.82,0-3.24.42-3.24,3.24,0,19.82,0,39.64,0,59.46"/>
    <path class="cls-3" d="M110.16,179.87v-47.65c0-.22,0-.43,0-.65-.05-2.19-.56-2.73-2.75-2.74-3.99-.03-7.98-.03-11.98,0-2.64.02-3.06.43-3.07,3.07-.02,15.99,0,31.98,0,47.97"/>
    <path class="cls-3" d="M80.38,179.87v-36.32c0-.32.02-.65,0-.97-.12-1.78-.64-2.39-2.42-2.41-4.31-.05-8.63-.05-12.95,0-1.87.02-2.41.68-2.42,2.73-.02,3.56,0,7.12,0,10.68v26.29"/>
    <path class="cls-3" d="M119.39,38.22h52.76"/>
    <path class="cls-3" d="M172.14,52.46c-16.02-.71-32.04-.14-48.06-.32-1.46-.02-2.92-.07-4.37.16"/>
    <path class="cls-3" d="M161.79,67.5c-1.56-.89-3.22-1.16-5.02-1.16-12.46.05-24.92.02-37.38.02"/>
    <path class="cls-3" d="M183.15,46.63c1.45-.41,2.66-1.15,3.74-2.25,3.52-3.6,7.1-7.14,10.66-10.69.98-.98,1.91-2.05,3.25-2.57.22-.09.25-.12.34-.34.81-1.91,2.44-3.16,3.88-4.52,1.5-1.41,3.8-1.4,5.3,0,2.12,1.98,4.15,4.05,6.16,6.14,1.29,1.35,1.06,4.3-.14,5.34-1.39,1.21-2.46,2.79-4.23,3.53-.21.09-.38.2-.47.35-2.17,3.87-5.79,6.41-8.78,9.52-6.64,6.9-13.58,13.49-20.23,20.38-1.13,1.17-1.21,3.05-2.45,3.83-1.29.81-2.72,1.36-3.84,2.5-5.74,5.8-11.54,11.55-17.29,17.34-1.05,1.05-2.1,2.01-3.73,1.76-.27-.04-.51.08-.64.19-3,2.52-6.84,2.69-10.37,3.7-.25.07-.57.09-.8,0-1.32-.54-2.09.15-2.76,1.15"/>
    <path class="cls-3" d="M180.56,75.59c.89,1.56,1.17,3.22,1.16,5.02-.06,8.49-.02,16.99-.02,25.48"/>
    <path class="cls-3" d="M147.54,81.74c-1.56-.89-3.22-1.17-5.02-1.16-6.58.06-13.16.03-19.74.02-1.03,0-2.05.04-3.07-.08"/>
    <path class="cls-3" d="M88.96,53.26c0-3.17-1.21-4.55-4.01-6.06-2.16-1.16-3.5.03-5.05.9-1.73.97-2.57,2.48-2.79,4.51-.41,3.74,2.24,6.6,6.18,6.78,2.87.13,5.27,2.24,5.81,4.88.6,2.91-.68,5.32-3.55,6.78-.91.46-1.79,1.45-2.89.95-2.1-.96-4.47-1.7-5.19-4.34"/>
    <path class="cls-3" d="M55.78,180.76c2.14-.4,4.42.31,6.48-.8.13-.07.33-.05.48,0,3.93,1.33,7.99.41,11.98.61,1.78.09,3.65.42,5.34-.6.12-.07.34-.06.48,0,2.73,1.18,5.65.8,8.41.53,2.64-.25,5.19.12,7.78.11,2.59,0,5.18.04,7.77-.02,1.79-.04,3.66.4,5.35-.62.12-.07.34-.06.48,0,2.73,1.18,5.65.8,8.41.53,2.64-.25,5.19.12,7.78.11,2.59,0,5.18.04,7.77-.02,1.79-.04,3.66.39,5.35-.62.16-.09.47-.09.63,0,2.06,1.1,4.34.4,6.48.8"/>
    <path class="cls-3" d="M201.27,31.1c3.46,3.39,6.77,6.94,10.35,10.2.03.02,0,.1,0,.16"/>
    <path class="cls-3" d="M145.93,87.57c3.52,2.24,6.38,5.16,8.73,8.58.15.21.25.5.17.8"/>
    <path class="cls-3" d="M169.23,118.15c-1.9.56-2.09.77-2.1,2.75-.02,7.55-.09,15.1.04,22.65.04,2.54.17,2.69,2.71,2.71,15,.09,29.99.05,44.99.04,2.15,0,2.74-.59,2.74-2.74.02-7.55.02-15.1,0-22.65,0-2.22-.62-2.75-3.07-2.75-15.05,0-30.1,0-45.15,0"/>
    <path class="cls-3" d="M169.23,156.33c-1.9.56-2.07.77-2.1,2.75-.02,1.62-.05,3.24,0,4.85.06,1.74.59,2.33,2.25,2.41,1.83.09,3.67.08,5.5,0,1.6-.07,2.18-.65,2.25-2.25.08-1.83.08-3.67,0-5.5-.08-1.65-.69-2.2-2.41-2.25-1.78-.06-3.56-.01-5.34-.01"/>
    <path class="cls-3" d="M189.3,156.33c-1.9.56-2.07.77-2.1,2.75-.02,1.73-.04,3.45,0,5.18.03,1.22.71,2.03,1.93,2.08,2.05.08,4.1.08,6.15,0,1.14-.04,1.88-.78,1.92-1.92.07-2.05.12-4.1-.01-6.15-.09-1.46-.79-1.9-2.56-1.94-1.73-.04-3.45,0-5.18,0"/>
    <path class="cls-3" d="M209.69,156.33c-1.9.56-2.07.77-2.1,2.75-.02,1.62-.05,3.24,0,4.85.06,1.74.59,2.33,2.25,2.41,1.83.09,3.67.08,5.5,0,1.6-.07,2.18-.65,2.25-2.25.08-1.83.08-3.67,0-5.5-.08-1.65-.69-2.2-2.41-2.25-1.78-.06-3.56-.01-5.34-.01"/>
    <path class="cls-3" d="M169.23,176.07c-1.91.57-2.07.76-2.1,2.75-.02,1.62,0,3.24,0,4.85,0,1.33.53,2.33,1.94,2.4,2.04.1,4.1.08,6.15,0,1.14-.04,1.88-.78,1.92-1.92.08-1.94.13-3.89-.01-5.82-.12-1.61-1.01-2.21-2.88-2.26-1.62-.04-3.24,0-4.85,0"/>
    <path class="cls-3" d="M189.3,176.07c-1.91.57-2.07.76-2.1,2.75-.02,1.73-.04,3.45,0,5.18.03,1.21.7,2.03,1.93,2.08,2.05.08,4.1.08,6.15,0,1.14-.04,1.88-.78,1.92-1.92.07-2.05.12-4.1-.01-6.15-.09-1.44-.8-1.9-2.56-1.94-1.73-.04-3.45,0-5.18,0"/>
    <path class="cls-3" d="M209.69,176.07c-1.91.57-2.07.76-2.1,2.75-.02,1.73-.04,3.45,0,5.18.03,1.21.7,2.03,1.93,2.08,2.05.08,4.1.09,6.15,0,1.32-.06,1.92-.96,1.94-2.24.02-1.73.08-3.46-.01-5.18-.1-1.8-.96-2.53-2.89-2.58-1.62-.04-3.24,0-4.85,0"/>
    <path class="cls-3" d="M81.68,34.33c-3.89.42-7.62,1.37-11,3.41-7.09,4.28-11.44,10.42-12.29,18.76-1.02,10.01,2.79,17.87,10.99,23.61,8.04,5.63,19.91,5.63,28.3-.51,6.3-4.6,9.86-10.91,10.35-18.74.4-6.38-1.38-12.18-5.48-17.14-5.36-6.48-12.31-9.56-20.7-9.39"/>
  </g>
  <text class="cls-2" transform="translate(85.47 228.82)"><tspan x="0" y="0">H</tspan><tspan class="cls-4" x="16.96" y="0">v</tspan><tspan x="28.91" y="0">a er et </tspan><tspan x="-33.76" y="28.8">driftsregnskap?</tspan></text>
</svg>